<svg xmlns="http://www.w3.org/2000/svg" xmlns:cc="http://web.resource.org/cc/" xmlns:svg="http://www.w3.org/2000/svg" xmlns:xlink="http://www.w3.org/1999/xlink" id="svg2" width="128" height="128" version="1.0"><defs id="defs4"><linearGradient id="linearGradient3400"><stop style="stop-color:#ff0;stop-opacity:1" id="stop3402" offset="0"/><stop style="stop-color:#ff0;stop-opacity:0" id="stop3404" offset="1"/></linearGradient><linearGradient id="linearGradient3377"><stop style="stop-color:#fff;stop-opacity:1" id="stop3379" offset="0"/><stop style="stop-color:#fff;stop-opacity:0" id="stop3381" offset="1"/></linearGradient><linearGradient id="linearGradient3320"><stop style="stop-color:#ea3b18;stop-opacity:1" id="stop3322" offset="0"/><stop style="stop-color:#ea3b18;stop-opacity:0" id="stop3324" offset="1"/></linearGradient><linearGradient id="linearGradient3306"><stop style="stop-color:#ff7e00;stop-opacity:1" id="stop3308" offset="0"/><stop style="stop-color:#ff7e00;stop-opacity:0" id="stop3310" offset="1"/></linearGradient><linearGradient id="linearGradient3282"><stop style="stop-color:#ac4311;stop-opacity:1" id="stop3284" offset="0"/><stop style="stop-color:#ea5418;stop-opacity:1" id="stop3286" offset="1"/></linearGradient><linearGradient id="linearGradient3252"><stop id="stop3254" offset="0" style="stop-color:#fff;stop-opacity:1"/><stop id="stop3256" offset="1" style="stop-color:#fff;stop-opacity:0"/></linearGradient><linearGradient id="linearGradient4193"><stop style="stop-color:#ffc404;stop-opacity:1" id="stop4195" offset="0"/><stop style="stop-color:#ffc404;stop-opacity:0" id="stop4197" offset="1"/></linearGradient><linearGradient id="linearGradient4068"><stop style="stop-color:#fff;stop-opacity:1" id="stop4070" offset="0"/><stop style="stop-color:#fff;stop-opacity:0" id="stop4072" offset="1"/></linearGradient><linearGradient id="linearGradient4056"><stop style="stop-color:#ffd500;stop-opacity:1" id="stop4058" offset="0"/><stop style="stop-color:#ff9;stop-opacity:0" id="stop4060" offset="1"/></linearGradient><linearGradient id="linearGradient3993"><stop style="stop-color:#ffffbf;stop-opacity:1" id="stop3995" offset="0"/><stop style="stop-color:#ffffbf;stop-opacity:0" id="stop3997" offset="1"/></linearGradient><linearGradient id="linearGradient3971"><stop style="stop-color:#fff;stop-opacity:1" id="stop3973" offset="0"/><stop style="stop-color:#fff;stop-opacity:0" id="stop3975" offset="1"/></linearGradient><linearGradient id="linearGradient3954"><stop style="stop-color:#ffffbf;stop-opacity:1" id="stop3956" offset="0"/><stop style="stop-color:#ffffbf;stop-opacity:0" id="stop3958" offset="1"/></linearGradient><linearGradient id="linearGradient3932"><stop id="stop3934" offset="0" style="stop-color:#ff0;stop-opacity:1"/><stop id="stop3936" offset="1" style="stop-color:#ff7e00;stop-opacity:1"/></linearGradient><linearGradient id="linearGradient3924"><stop style="stop-color:#fff;stop-opacity:1" id="stop3926" offset="0"/><stop style="stop-color:#fff;stop-opacity:0" id="stop3928" offset="1"/></linearGradient><linearGradient id="linearGradient3863"><stop style="stop-color:#ff0;stop-opacity:1" id="stop3865" offset="0"/><stop style="stop-color:#ff0;stop-opacity:0" id="stop3867" offset="1"/></linearGradient><linearGradient id="linearGradient3851"><stop style="stop-color:#fd0;stop-opacity:1" id="stop3853" offset="0"/><stop style="stop-color:#e15800;stop-opacity:1" id="stop3855" offset="1"/></linearGradient><radialGradient id="radialGradient3849" cx="63.684" cy="85.945" r="48.004" fx="63.684" fy="85.945" gradientTransform="matrix(4.125192,-0.4335743,0.1499795,1.4269598,-211.59742,-0.8510997)" gradientUnits="userSpaceOnUse" xlink:href="#linearGradient3932"/><linearGradient id="linearGradient3857" x1="74.686" x2="74.686" y1="37.713" y2="108.009" gradientTransform="matrix(1.0003186,0,0,1.0920256,4.8948421e-3,-2.1497485)" gradientUnits="userSpaceOnUse" xlink:href="#linearGradient3851"/><radialGradient id="radialGradient3869" cx="64" cy="85.107" r="44.376" fx="64" fy="85.107" gradientTransform="matrix(1.2869508,0,0,1.1214233,-18.364853,-13.046791)" gradientUnits="userSpaceOnUse" xlink:href="#linearGradient3863"/><linearGradient id="linearGradient3930" x1="88.96" x2="78.86" y1="69.508" y2="31.817" gradientTransform="matrix(1.0076278,0,0,1.0920256,-0.8831547,-2.1497485)" gradientUnits="userSpaceOnUse" xlink:href="#linearGradient3924"/><filter id="filter3950"><feGaussianBlur id="feGaussianBlur3952" stdDeviation=".455"/></filter><linearGradient id="linearGradient3960" x1="72.743" x2="72.743" y1="102.715" y2="42.471" gradientUnits="userSpaceOnUse" xlink:href="#linearGradient3954"/><linearGradient id="linearGradient3977" x1="65.98" x2="67.189" y1="15.087" y2="82.91" gradientTransform="matrix(1.0152964,0,0,1.0920256,-1.3711972,-2.1497485)" gradientUnits="userSpaceOnUse" xlink:href="#linearGradient3971"/><radialGradient id="radialGradient3999" cx="64" cy="64.5" r="7" fx="64" fy="64.5" gradientTransform="matrix(7.4243342,0,0,4.3571426,-411.15739,-216.53569)" gradientUnits="userSpaceOnUse" xlink:href="#linearGradient3993"/><radialGradient id="radialGradient4062" cx="22.005" cy="102" r="5.995" fx="22.005" fy="102" gradientTransform="matrix(8.2879791,-4.7852502,0.5464445,0.9465058,-219.3366,117.99253)" gradientUnits="userSpaceOnUse" xlink:href="#linearGradient4056"/><radialGradient id="radialGradient4066" cx="22.005" cy="102" r="5.995" fx="22.005" fy="102" gradientTransform="matrix(-8.2879791,-4.7852502,-0.5464445,0.9465058,347.61812,117.99253)" gradientUnits="userSpaceOnUse" xlink:href="#linearGradient4056"/><radialGradient id="radialGradient4076" cx="64" cy="21.994" r="4.219" fx="64" fy="21.994" gradientTransform="matrix(-1,0,0,-12.343127,128,293.46933)" gradientUnits="userSpaceOnUse" xlink:href="#linearGradient4068"/><filter id="filter4102" width="1.204" height="1.143" x="-.102" y="-.072"><feGaussianBlur id="feGaussianBlur4104" stdDeviation=".358"/></filter><linearGradient id="linearGradient4179" x1="56.874" x2="72.923" y1="22.873" y2="77.707" gradientTransform="matrix(1.0229652,0,0,1.0920256,-1.4644437,-1.8338916)" gradientUnits="userSpaceOnUse" xlink:href="#linearGradient3252"/><linearGradient id="linearGradient4199" x1="64.654" x2="82.169" y1="20.94" y2="149.079" gradientUnits="userSpaceOnUse" xlink:href="#linearGradient4193"/><linearGradient id="linearGradient3250" x1="96.933" x2="76.824" y1="77.581" y2="40.686" gradientTransform="matrix(1.0229652,0,0,1.0920256,-1.8592398,-2.1497485)" gradientUnits="userSpaceOnUse" xlink:href="#linearGradient3924"/><filter id="filter3274"><feGaussianBlur id="feGaussianBlur3276" stdDeviation="1.443"/></filter><linearGradient id="linearGradient3288" x1="70.006" x2="59.429" y1="100.143" y2="40.156" gradientUnits="userSpaceOnUse" xlink:href="#linearGradient3282"/><radialGradient id="radialGradient3312" cx="64" cy="72" r="8.785" fx="64" fy="72" gradientTransform="matrix(7.9280565,-0.2768537,0.1496998,4.2868418,-454.17398,-218.93398)" gradientUnits="userSpaceOnUse" xlink:href="#linearGradient3306"/><radialGradient id="radialGradient3326" cx="64.025" cy="25.957" r="52.025" fx="64.025" fy="25.957" gradientTransform="matrix(1.4073524,-4.9145829e-2,3.3701767e-2,0.9650923,-26.955636,5.4114576)" gradientUnits="userSpaceOnUse" xlink:href="#linearGradient3320"/><filter id="filter3344" width="1.297" height="1.087" x="-.149" y="-.044"><feGaussianBlur id="feGaussianBlur3346" stdDeviation="1.088"/></filter><linearGradient id="linearGradient3358" x1="70.006" x2="59.429" y1="100.143" y2="40.156" gradientUnits="userSpaceOnUse" xlink:href="#linearGradient3282"/><linearGradient id="linearGradient3361" x1="70.006" x2="59.429" y1="100.143" y2="40.156" gradientUnits="userSpaceOnUse" xlink:href="#linearGradient3282"/><linearGradient id="linearGradient3366" x1="54.046" x2="78.194" y1="13.634" y2="92.522" gradientTransform="matrix(0.9986369,0,0,1.0660549,8.3827119e-2,-1.3146341)" gradientUnits="userSpaceOnUse" xlink:href="#linearGradient3252"/><linearGradient id="linearGradient3372" x1="54.046" x2="78.194" y1="13.634" y2="92.522" gradientTransform="matrix(0.9995069,0,0,1.0617264,-0.1793381,-1.2280911)" gradientUnits="userSpaceOnUse" xlink:href="#linearGradient3252"/><linearGradient id="linearGradient3374" x1="54.046" x2="78.194" y1="13.634" y2="92.522" gradientTransform="matrix(1.0229652,0,0,1.0920256,-1.4644437,-1.8338916)" gradientUnits="userSpaceOnUse" xlink:href="#linearGradient3252"/><linearGradient id="linearGradient3383" x1="85.398" x2="61.265" y1="82.806" y2="46.196" gradientUnits="userSpaceOnUse" xlink:href="#linearGradient3377"/><linearGradient id="linearGradient3391" x1="67.097" x2="67.097" y1="35.312" y2="105.405" gradientUnits="userSpaceOnUse" xlink:href="#linearGradient3282"/><filter id="filter3396" width="1.228" height="1.061" x="-.114" y="-.03"><feGaussianBlur id="feGaussianBlur3398" stdDeviation=".855"/></filter><radialGradient id="radialGradient3406" cx="63.75" cy="68.478" r="9" fx="63.75" fy="68.478" gradientTransform="matrix(4.5093795,0,0,4.2142344,-223.72294,-220.10349)" gradientUnits="userSpaceOnUse" xlink:href="#linearGradient3400"/><radialGradient id="radialGradient3410" cx="63.75" cy="74.356" r="9" fx="63.75" fy="74.356" gradientTransform="matrix(4.5093795,0,0,1.3282315,-223.72294,-5.5119394)" gradientUnits="userSpaceOnUse" xlink:href="#linearGradient3400"/></defs><metadata id="metadata7"/><g id="layer1"><path style="opacity:1;fill:#ffc404;fill-opacity:1;fill-rule:evenodd;stroke:url(#linearGradient4199);stroke-width:1.82068181;stroke-linecap:round;stroke-linejoin:round;stroke-miterlimit:4;stroke-dasharray:none;stroke-opacity:1;filter:url(#filter3274)" id="path4137" d="M 63.594525,15.80685 C 61.088483,15.954871 58.821624,17.466363 57.570338,19.823647 L 16.791222,96.142808 C 15.466493,98.629922 15.467558,101.69401 16.794017,104.18005 C 18.120475,106.66607 20.570634,108.19604 23.220884,108.1932 L 104.77911,108.1932 C 107.42937,108.19604 109.87952,106.66607 111.20598,104.18005 C 112.53244,101.69401 112.5335,98.629922 111.20877,96.142808 L 70.429661,19.823647 C 69.033862,17.19393 66.390069,15.640255 63.594525,15.80685 z" transform="matrix(1.0967227,0,0,1.1002593,-6.1902535,-2.2094077)"/><path style="fill:url(#linearGradient3857);fill-opacity:1;fill-rule:evenodd;stroke:none;stroke-width:16;stroke-linecap:round;stroke-linejoin:round;stroke-miterlimit:4;stroke-dasharray:none;stroke-opacity:1" id="path3833" d="M 63.58764,15.32266 C 60.8828,15.483628 58.436118,17.127313 57.085569,19.690763 L 13.071555,102.6847 C 11.641738,105.38934 11.642888,108.72141 13.074571,111.42487 C 14.506254,114.12833 17.150778,115.7921 20.011265,115.78901 L 108.0393,115.78901 C 110.89979,115.7921 113.5443,114.12833 114.97599,111.42487 C 116.40766,108.72141 116.40881,105.38934 114.979,102.6847 L 70.964989,19.690763 C 69.458464,16.831053 66.604947,15.141495 63.58764,15.32266 z"/><path id="path3318" d="M 63.58764,15.32266 C 60.8828,15.483628 58.436118,17.127313 57.085569,19.690763 L 13.071555,102.6847 C 11.641738,105.38934 11.642888,108.72141 13.074571,111.42487 C 14.506254,114.12833 17.150778,115.7921 20.011265,115.78901 L 108.0393,115.78901 C 110.89979,115.7921 113.5443,114.12833 114.97599,111.42487 C 116.40766,108.72141 116.40881,105.38934 114.979,102.6847 L 70.964989,19.690763 C 69.458464,16.831053 66.604947,15.141495 63.58764,15.32266 z" style="fill:url(#radialGradient3326);fill-opacity:1;fill-rule:evenodd;stroke:none;stroke-width:16;stroke-linecap:round;stroke-linejoin:round;stroke-miterlimit:4;stroke-dasharray:none;stroke-opacity:1;opacity:.36734694"/><path style="opacity:.92195123;fill:url(#radialGradient4076);fill-opacity:1;fill-rule:evenodd;stroke:none;stroke-width:16;stroke-linecap:round;stroke-linejoin:round;stroke-miterlimit:4;stroke-dasharray:none;stroke-opacity:1;filter:url(#filter4102)" id="path4051" d="M 63.59375,16 C 62.204553,16.082054 60.889465,16.602887 59.78125,17.4375 L 64,28 L 68.21875,17.4375 C 66.88987,16.43384 65.2712,15.900036 63.59375,16 z" transform="matrix(1.0919838,0,0,1.0920256,-7.2516225,-2.1497485)"/><path style="opacity:.80102041;fill:url(#radialGradient4062);fill-opacity:1;fill-rule:evenodd;stroke:none;stroke-width:16;stroke-linecap:round;stroke-linejoin:round;stroke-miterlimit:4;stroke-dasharray:none;stroke-opacity:1" id="path4041" d="M 25.323922,102.6847 L 12.493113,104.83463 C 11.963856,107.03044 12.235578,109.40323 13.312101,111.42091 C 14.754514,114.12437 17.425695,115.7921 20.307621,115.78901 L 23.139955,115.78901 L 25.323922,102.6847 z"/><path id="path4064" d="M 102.9576,102.6847 L 115.78841,104.83463 C 116.31767,107.03044 116.04595,109.40323 114.96942,111.42091 C 113.52701,114.12437 110.85583,115.7921 107.9739,115.78901 L 105.14157,115.78901 L 102.9576,102.6847 z" style="opacity:.71938776;fill:url(#radialGradient4066);fill-opacity:1;fill-rule:evenodd;stroke:none;stroke-width:16;stroke-linecap:round;stroke-linejoin:round;stroke-miterlimit:4;stroke-dasharray:none;stroke-opacity:1"/><path style="fill:url(#radialGradient3849);fill-opacity:1;fill-rule:evenodd;stroke:none;stroke-width:8;stroke-linecap:round;stroke-linejoin:round;stroke-miterlimit:4;stroke-dasharray:none;stroke-opacity:1" id="path3831" d="M 63.78127,20.006639 C 62.429404,20.087352 61.206563,20.911554 60.531566,22.196957 L 16.535558,105.42905 C 15.820943,106.78523 15.821517,108.45607 16.537067,109.81166 C 17.252613,111.16727 18.574334,112.00154 20.003992,112 L 107.996,112 C 109.42567,112.00154 110.7474,111.16727 111.46293,109.81166 C 112.17849,108.45607 112.17905,106.78523 111.46444,105.42905 L 67.468436,22.196957 C 66.715482,20.762999 65.289306,19.915795 63.78127,20.006639 L 63.78127,20.006639 z"/><path id="path3394" d="M 63.40625,36.71875 C 60.266222,36.913888 57.331988,39.264296 57.875,44 L 61.4375,79.71875 C 62.189089,79.591351 62.962322,79.5 63.75,79.5 C 64.69875,79.5 65.636426,79.597988 66.53125,79.78125 L 70.09375,44 C 70.784031,39.043508 66.964948,36.497594 63.40625,36.71875 z" style="font-size:83.71386719px;font-style:normal;font-weight:400;fill:none;fill-opacity:1;stroke:url(#radialGradient3406);stroke-width:4;stroke-linecap:butt;stroke-linejoin:miter;stroke-opacity:1;font-family:Liberation Sans;stroke-miterlimit:4;stroke-dasharray:none;filter:url(#filter3396);opacity:.75"/><path id="path3948" d="M 63.78125,20 C 62.429261,20.073701 61.206309,20.826287 60.53125,22 L 16.53125,98 C 15.816569,99.238357 15.817144,100.764 16.532758,102.00181 C 17.248371,103.23963 18.570212,104.00141 20,104 L 108,104 C 109.42979,104.00141 110.75163,103.23963 111.46724,102.00181 C 112.18286,100.764 112.18343,99.238357 111.46875,98 L 67.46875,22 C 66.715728,20.69064 65.289423,19.917051 63.78125,20 L 63.78125,20 z" style="fill:none;fill-opacity:1;fill-rule:evenodd;stroke:url(#linearGradient3960);stroke-width:.95465171;stroke-linecap:round;stroke-linejoin:round;stroke-miterlimit:4;stroke-dasharray:none;stroke-opacity:1;filter:url(#filter3950)" transform="matrix(0.9982143,0,0,1.0992242,-0.2503837,-2.6968261)"/><path style="fill:url(#linearGradient3977);fill-opacity:1;fill-rule:evenodd;stroke:none;stroke-width:8;stroke-linecap:round;stroke-linejoin:round;stroke-miterlimit:4;stroke-dasharray:none;stroke-opacity:1" id="path3962" d="M 63.385681,19.690763 C 62.013012,19.771246 60.771353,20.593089 60.085969,21.874814 L 34.100723,70.162819 L 34.132451,70.162819 L 60.085969,23.137469 C 60.771353,21.888035 62.013012,21.100125 63.385681,21.021668 C 64.916924,20.933369 66.365047,21.743636 67.129587,23.137469 L 92.35336,68.797787 C 92.363486,68.795622 92.374963,68.799955 92.385087,68.797787 L 67.129587,21.874814 C 66.365047,20.444959 64.916924,19.60018 63.385681,19.690763 z"/><path style="font-size:83.71386719px;font-style:normal;font-weight:400;fill:none;fill-opacity:1;stroke:url(#radialGradient3410);stroke-width:4;stroke-linecap:butt;stroke-linejoin:miter;stroke-opacity:1;font-family:Liberation Sans;stroke-miterlimit:4;stroke-dasharray:none;filter:url(#filter3396);opacity:.75" id="path3408" d="M 63.75,86.25 C 59.886,86.25 56.75,89.386 56.75,93.25 C 56.75,97.114 59.886,100.25 63.75,100.25 C 67.614,100.25 70.75,97.114 70.75,93.25 C 70.75,89.386 67.614,86.25 63.75,86.25 z"/><path style="font-size:83.71386719px;font-style:normal;font-weight:400;fill:url(#linearGradient3391);fill-opacity:1;stroke:none;stroke-width:1px;stroke-linecap:butt;stroke-linejoin:miter;stroke-opacity:1;font-family:Liberation Sans" id="text3278" d="M 63.40625 36.71875 C 60.266222 36.913888 57.331988 39.264296 57.875 44 L 61.4375 79.71875 C 62.189089 79.591351 62.962322 79.5 63.75 79.5 C 64.69875 79.5 65.636426 79.597988 66.53125 79.78125 L 70.09375 44 C 70.784031 39.043508 66.964948 36.497594 63.40625 36.71875 z M 63.75 86.25 C 59.886 86.25 56.75 89.386 56.75 93.25 C 56.75 97.114 59.886 100.25 63.75 100.25 C 67.614 100.25 70.75 97.114 70.75 93.25 C 70.75 89.386 67.614 86.25 63.75 86.25 z"/><path style="opacity:.86734697;fill:url(#linearGradient4179);fill-opacity:1;fill-rule:evenodd;stroke:none;stroke-width:8;stroke-linecap:round;stroke-linejoin:round;stroke-miterlimit:4;stroke-dasharray:none;stroke-opacity:1" id="path3895" d="M 63.781556,20.00662 C 62.398518,20.087103 61.147481,20.908946 60.456919,22.190671 L 34.275402,70.478676 C 42.305309,71.743881 50.929542,72.423846 59.913469,72.423846 C 71.74643,72.423846 82.957077,71.247715 93,69.113644 L 67.55374,22.190671 C 66.783425,20.760816 65.324364,19.916037 63.781556,20.00662 z"/><path style="opacity:1;fill:url(#linearGradient3383);fill-opacity:1;fill-rule:evenodd;stroke:none;stroke-width:8;stroke-linecap:round;stroke-linejoin:round;stroke-miterlimit:4;stroke-dasharray:none;stroke-opacity:1" id="path3368" d="M 64.34375 20.03125 C 65.551601 20.210711 66.627874 20.975908 67.25 22.125 L 92.125 67.75 C 82.312377 69.824859 71.342862 70.968751 59.78125 70.96875 C 51.106743 70.96875 42.798082 70.296099 35.03125 69.09375 L 34.28125 70.46875 C 42.311157 71.733955 50.922323 72.4375 59.90625 72.4375 C 71.739213 72.437503 82.957077 71.259071 93 69.125 L 67.5625 22.1875 C 66.888473 20.936376 65.667116 20.151811 64.34375 20.03125 z"/></g></svg>