<svg xmlns="http://www.w3.org/2000/svg" xmlns:svg="http://www.w3.org/2000/svg" xmlns:xlink="http://www.w3.org/1999/xlink" id="svg2" width="128" height="128" enable-background="new" version="1.0"><defs id="defs4"><linearGradient id="linearGradient3436"><stop style="stop-color:#fff;stop-opacity:1" id="stop3438" offset="0"/><stop style="stop-color:#fff;stop-opacity:0" id="stop3440" offset="1"/></linearGradient><linearGradient id="linearGradient3415"><stop style="stop-color:#f0ff80;stop-opacity:1" id="stop3417" offset="0"/><stop style="stop-color:#f0ff80;stop-opacity:0" id="stop3419" offset="1"/></linearGradient><linearGradient id="linearGradient2998"><stop style="stop-color:#fff;stop-opacity:1" id="stop3000" offset="0"/><stop style="stop-color:#fff;stop-opacity:0" id="stop3002" offset="1"/></linearGradient><linearGradient id="linearGradient2981"><stop style="stop-color:#001400;stop-opacity:1" id="stop2983" offset="0"/><stop style="stop-color:#001400;stop-opacity:0" id="stop2985" offset="1"/></linearGradient><linearGradient id="linearGradient2971"><stop style="stop-color:#bfffbf;stop-opacity:1" id="stop2973" offset="0"/><stop style="stop-color:#bfffbf;stop-opacity:0" id="stop2975" offset="1"/></linearGradient><linearGradient id="linearGradient2956"><stop style="stop-color:#003100;stop-opacity:1" id="stop2958" offset="0"/><stop style="stop-color:#008c00;stop-opacity:1" id="stop2960" offset="1"/></linearGradient><linearGradient id="linearGradient2948"><stop style="stop-color:#66f515;stop-opacity:1" id="stop2950" offset="0"/><stop style="stop-color:#002e00;stop-opacity:1" id="stop2952" offset="1"/></linearGradient><linearGradient id="XMLID_2_" x1="64.001" x2="64.001" y1="113" y2="29" gradientTransform="matrix(0.8571431,0,0,0.8571431,9.1428301,-0.804281)" gradientUnits="userSpaceOnUse"><stop id="stop20" style="stop-color:#00bf00;stop-opacity:1" offset="0"/><stop id="stop22" style="stop-color:#009300;stop-opacity:1" offset="1"/></linearGradient><radialGradient id="radialGradient2954" cx="54.538" cy="77.542" r="48" fx="54.538" fy="99.884" gradientTransform="matrix(1.3117247,5.8470212e-8,-4.3852649e-8,0.9837933,-16.905997,1.313725)" gradientUnits="userSpaceOnUse" xlink:href="#linearGradient2948"/><linearGradient id="linearGradient2962" x1="89.091" x2="89.091" y1="103.897" y2="30.849" gradientTransform="translate(0,4)" gradientUnits="userSpaceOnUse" xlink:href="#linearGradient2956"/><linearGradient id="linearGradient2977" x1="83.325" x2="83.325" y1="24.063" y2="89.995" gradientTransform="translate(-2.3931686e-5,4)" gradientUnits="userSpaceOnUse" xlink:href="#linearGradient2971"/><radialGradient id="radialGradient2987" cx="52.792" cy="95.459" r="52" fx="53.16" fy="87.081" gradientTransform="matrix(0.5646619,8.5323328e-8,-1.386601e-7,0.9176397,24.424169,0.1439155)" gradientUnits="userSpaceOnUse" xlink:href="#linearGradient2981"/><radialGradient id="radialGradient3004" cx="99.766" cy="29.375" r="3.016" fx="99.766" fy="29.375" gradientTransform="matrix(1.9646726,3.4242959e-7,-1.0414508e-6,5.9752716,-96.241137,-146.14811)" gradientUnits="userSpaceOnUse" xlink:href="#linearGradient2998"/><radialGradient id="radialGradient3256" cx="99.766" cy="29.375" r="3.016" fx="99.766" fy="29.375" gradientTransform="matrix(1.9646726,3.4242959e-7,-1.0414508e-6,5.9752716,-96.241137,-146.14811)" gradientUnits="userSpaceOnUse" xlink:href="#linearGradient2998"/><radialGradient id="radialGradient3288" cx="99.766" cy="29.375" r="3.016" fx="99.766" fy="29.375" gradientTransform="matrix(1.9646726,3.4242959e-7,-1.0414508e-6,5.9752716,-167.24116,-126.14811)" gradientUnits="userSpaceOnUse" xlink:href="#linearGradient2998"/><radialGradient id="radialGradient3292" cx="99.766" cy="29.375" r="3.016" fx="99.766" fy="29.375" gradientTransform="matrix(1.9646726,3.4242959e-7,-1.0414508e-6,5.9752716,-96.241137,-146.14811)" gradientUnits="userSpaceOnUse" xlink:href="#linearGradient2998"/><linearGradient id="linearGradient3421" x1="71.604" x2="71.604" y1="96.884" y2="47.379" gradientUnits="userSpaceOnUse" xlink:href="#linearGradient3415"/><filter id="filter3423"><feGaussianBlur id="feGaussianBlur3425" stdDeviation=".425"/></filter><linearGradient id="linearGradient3442" x1="87.533" x2="77.138" y1="74.839" y2="46.277" gradientUnits="userSpaceOnUse" xlink:href="#linearGradient3436"/><linearGradient id="linearGradient3453" x1="83.325" x2="83.325" y1="24.063" y2="69.838" gradientTransform="translate(0,4)" gradientUnits="userSpaceOnUse" xlink:href="#linearGradient3436"/><radialGradient id="radialGradient3457" cx="99.766" cy="29.375" r="3.016" fx="99.766" fy="29.375" gradientTransform="matrix(1.9646726,3.4242959e-7,-1.0414508e-6,5.9752716,-167.24116,-126.14811)" gradientUnits="userSpaceOnUse" xlink:href="#linearGradient3415"/><filter id="filter3505"><feGaussianBlur id="feGaussianBlur3507" stdDeviation=".461"/></filter><radialGradient id="radialGradient3511" cx="53.633" cy="51.92" r="52" fx="53.633" fy="51.92" gradientTransform="matrix(1.0961401,8.7912098e-2,-0.1002304,1.2497316,1.0599334,-18.687387)" gradientUnits="userSpaceOnUse" xlink:href="#linearGradient2998"/><filter id="filter3521"><feBlend id="feBlend3523" in2="BackgroundImage" mode="lighten"/></filter><filter id="filter3525" width="1.365" height="1.206" x="-.182" y="-.103"><feGaussianBlur id="feGaussianBlur3527" stdDeviation=".458"/></filter><filter id="filter3529" width="1.365" height="1.206" x="-.182" y="-.103"><feGaussianBlur id="feGaussianBlur3531" stdDeviation=".458"/></filter><filter id="filter3533" width="1.208" height="1.37" x="-.104" y="-.185"><feGaussianBlur id="feGaussianBlur3535" stdDeviation=".458"/></filter><filter id="filter3537" width="1.365" height="1.206" x="-.182" y="-.103"><feGaussianBlur id="feGaussianBlur3539" stdDeviation=".458"/></filter><filter id="filter3541" width="1.208" height="1.37" x="-.104" y="-.185"><feGaussianBlur id="feGaussianBlur3543" stdDeviation=".458"/></filter></defs><metadata id="metadata7"/><g id="layer1"><g style="overflow:visible" id="g2358" transform="translate(2.3931686e-5,0)"><path style="fill:none;stroke:#004d00;stroke-width:8.1;stroke-linecap:round;stroke-linejoin:round;stroke-miterlimit:4;stroke-dasharray:none;stroke-opacity:1;filter:url(#filter3505)" id="path3503" d="M 54.393966,74.154282 C 46.245967,65.803997 28.630827,47.75 28.630827,47.75 L 15.999972,60.697999 L 54.393966,100.05285 L 111.99998,41 L 99.367397,28.05286 C 99.367397,28.05286 64.105395,64.200283 54.393966,74.154282 z"/><path id="path2365" d="M 54.393966,74.154282 C 46.245967,65.803997 28.630827,47.75 28.630827,47.75 L 15.999972,60.697999 L 54.393966,100.05285 L 111.99998,41 L 99.367397,28.05286 C 99.367397,28.05286 64.105395,64.200283 54.393966,74.154282 z" style="fill:none;stroke:url(#linearGradient2962);stroke-width:8;stroke-linecap:round;stroke-linejoin:round;stroke-miterlimit:4;stroke-dasharray:none;stroke-opacity:1"/><path id="path3509" d="M 54.393966,74.154282 C 46.245967,65.803997 28.630827,47.75 28.630827,47.75 L 15.999972,60.697999 L 54.393966,100.05285 L 111.99998,41 L 99.367397,28.05286 C 99.367397,28.05286 64.105395,64.200283 54.393966,74.154282 z" style="fill:none;stroke:url(#radialGradient3511);stroke-width:8;stroke-linecap:round;stroke-linejoin:round;stroke-miterlimit:4;stroke-dasharray:none;stroke-opacity:1;opacity:.28571428999999998;filter:url(#filter3521)"/><path style="opacity:.40952380999999999;fill:url(#radialGradient3457);fill-opacity:1;stroke:none;stroke-width:8;stroke-linecap:round;stroke-linejoin:round;stroke-miterlimit:4;stroke-dasharray:none;stroke-opacity:1;filter:url(#filter3525)" id="path3455" d="M 28.406226,44.03125 C 28.256338,44.028846 28.119644,44.047827 27.968726,44.0625 C 27.141534,44.144551 26.373396,44.489582 25.749976,45.03125 L 27.437476,54.71875 C 27.548391,54.605074 28.287843,53.870571 28.374976,53.78125 L 28.749976,54.15625 L 31.781226,45.8125 L 31.218726,45.25 C 30.477376,44.490406 29.455436,44.048081 28.406226,44.03125 z" transform="matrix(1,0,0,-1,26,147.74979)"/><path style="opacity:.23809524000000001;fill:url(#radialGradient3292);fill-opacity:1;stroke:none;stroke-width:8;stroke-linecap:round;stroke-linejoin:round;stroke-miterlimit:4;stroke-dasharray:none;stroke-opacity:1;filter:url(#filter3533)" id="path3290" d="M 99.40625,24.03125 C 99.256362,24.028846 99.119668,24.047827 98.96875,24.0625 C 98.141558,24.144551 97.37342,24.489582 96.75,25.03125 L 98.4375,34.71875 C 98.548415,34.605074 99.287867,33.870571 99.375,33.78125 L 99.75,34.15625 L 102.78125,25.8125 L 102.21875,25.25 C 101.4774,24.490406 100.45546,24.048081 99.40625,24.03125 z" transform="matrix(-0.3420202,0.9396927,0.9396927,0.3420202,24.20981,-42.203299)"/><path id="path3286" d="M 28.406226,44.03125 C 28.256338,44.028846 28.119644,44.047827 27.968726,44.0625 C 27.141534,44.144551 26.373396,44.489582 25.749976,45.03125 L 27.437476,54.71875 C 27.548391,54.605074 28.287843,53.870571 28.374976,53.78125 L 28.749976,54.15625 L 31.781226,45.8125 L 31.218726,45.25 C 30.477376,44.490406 29.455436,44.048081 28.406226,44.03125 z" style="opacity:.77619048000000002;fill:url(#radialGradient3288);fill-opacity:1;stroke:none;stroke-width:8;stroke-linecap:round;stroke-linejoin:round;stroke-miterlimit:4;stroke-dasharray:none;stroke-opacity:1;filter:url(#filter3529)"/><path id="path3254" d="M 99.40625,24.03125 C 99.256362,24.028846 99.119668,24.047827 98.96875,24.0625 C 98.141558,24.144551 97.37342,24.489582 96.75,25.03125 L 98.4375,34.71875 C 98.548415,34.605074 99.287867,33.870571 99.375,33.78125 L 99.75,34.15625 L 102.78125,25.8125 L 102.21875,25.25 C 101.4774,24.490406 100.45546,24.048081 99.40625,24.03125 z" transform="matrix(0.3420202,0.9396927,-0.9396927,0.3420202,104.53338,-62.203299)" style="opacity:.37142857000000001;fill:url(#radialGradient3256);fill-opacity:1;stroke:none;stroke-width:8;stroke-linecap:round;stroke-linejoin:round;stroke-miterlimit:4;stroke-dasharray:none;stroke-opacity:1;filter:url(#filter3541)"/><path style="fill:url(#radialGradient3004);fill-opacity:1;stroke:none;stroke-width:8;stroke-linecap:round;stroke-linejoin:round;stroke-miterlimit:4;stroke-dasharray:none;stroke-opacity:1;filter:url(#filter3537);opacity:.87142856999999985" id="path2989" d="M 99.40625 24.03125 C 99.256362 24.028846 99.119668 24.047827 98.96875 24.0625 C 98.141558 24.144551 97.37342 24.489582 96.75 25.03125 L 98.4375 34.71875 C 98.548415 34.605074 99.287867 33.870571 99.375 33.78125 L 99.75 34.15625 L 102.78125 25.8125 L 102.21875 25.25 C 101.4774 24.490406 100.45546 24.048081 99.40625 24.03125 z" transform="translate(-2.3931686e-5,0)"/><path style="fill:none;stroke:url(#radialGradient2987);stroke-width:8;stroke-linecap:round;stroke-linejoin:round;stroke-miterlimit:4;stroke-dasharray:none;stroke-opacity:1;opacity:.28571429" id="path2979" d="M 54.393966,74.154282 C 46.245967,65.803997 28.630827,47.75 28.630827,47.75 L 15.999972,60.697999 L 54.393966,100.05285 L 111.99998,41 L 99.367397,28.05286 C 99.367397,28.05286 64.105395,64.200283 54.393966,74.154282 z"/><path style="fill:url(#radialGradient2954);fill-opacity:1" id="path24" d="M 54.393966,74.154282 C 46.245967,65.803997 28.630827,47.75 28.630827,47.75 L 15.999972,60.697999 L 54.393966,100.05285 L 111.99998,41 L 99.367397,28.05286 C 99.367397,28.05286 64.105395,64.200283 54.393966,74.154282 z"/><path style="fill:url(#linearGradient2977);fill-opacity:1" id="path2964" d="M 99.374976,28.0625 C 99.374973,28.0625 64.117655,64.202251 54.406226,74.15625 C 46.258227,65.805965 28.624976,47.75 28.624976,47.75 L 15.999976,60.6875 L 32.468726,77.5625 C 32.657637,77.562987 32.842103,77.5625 33.031226,77.5625 C 50.561025,77.5625 67.167517,75.469361 82.062476,71.71875 L 111.99998,41 L 99.374976,28.0625 z"/><path id="path3413" d="M 54.393966,74.154282 C 46.245967,65.803997 28.630827,47.75 28.630827,47.75 L 15.999972,60.697999 L 54.393966,100.05285 L 111.99998,41 L 99.367397,28.05286 C 99.367397,28.05286 64.105395,64.200283 54.393966,74.154282 z" style="fill:none;fill-opacity:1;stroke:url(#linearGradient3421);stroke-opacity:1;filter:url(#filter3423)"/><path style="fill:url(#linearGradient3442);fill-opacity:1;opacity:1" id="path3427" d="M 99.375,28.0625 C 99.375,28.0625 98.974759,28.493841 98.96875,28.5 L 111.15625,40.78125 L 81.15625,71 C 66.229051,74.687634 50.098993,77.218746 32.53125,77.21875 C 32.404895,77.21875 32.281159,77.218749 32.15625,77.21875 L 32.46875,77.5625 C 32.657661,77.562987 32.842127,77.5625 33.03125,77.5625 C 50.561049,77.5625 67.167541,75.469361 82.0625,71.71875 L 112,41 L 99.375,28.0625 z" transform="translate(-2.3931686e-5,0)"/><path style="fill:url(#linearGradient3453);fill-opacity:1" id="path3444" d="M 99.375 28.0625 C 99.374997 28.0625 64.117679 64.202251 54.40625 74.15625 C 46.258251 65.805965 28.625 47.75 28.625 47.75 L 16 60.6875 L 16.5 61.1875 L 28.625 48.75 C 28.625 48.75 46.258251 66.805965 54.40625 75.15625 C 64.117679 65.202251 99.374997 29.0625 99.375 29.0625 L 111.5 41.5 L 112 41 L 99.375 28.0625 z" transform="translate(-2.3931686e-5,0)"/></g></g></svg>