<svg xmlns="http://www.w3.org/2000/svg" xmlns:svg="http://www.w3.org/2000/svg" id="svg2" width="128mm" height="128mm" version="1.1" viewBox="0 0 453.543 453.543"><metadata id="metadata7"/><g id="layer1" transform="translate(-146.78574,-109.17599)"><g id="g4942" transform="translate(15.714287,-38.714288)"><rect style="fill:#d35f5f;fill-opacity:1" id="rect4830" width="370" height="330" x="172.143" y="208.076"/><rect style="fill:#000;fill-opacity:1" id="rect4834" width="377.857" height="339.286" x="168.571" y="203.791"/><path style="fill:#d54a3c;fill-opacity:1" id="path4832" d="m 172.09823,373.03583 0,-164.64286 185,0 185,0 0,164.64286 0,164.64286 -185,0 -185,0 0,-164.64286 z"/><ellipse style="fill:#000;fill-opacity:1" id="path4836" cx="537.5" cy="209.148" rx="27.5" ry="25.357"/><ellipse style="fill:#000;fill-opacity:1" id="path4836-3" cx="174.286" cy="537.362" rx="27.5" ry="25.357"/><rect style="fill:#000;fill-opacity:1" id="rect4874" width="4.286" height="195" x="268.571" y="345.934"/><rect style="fill:#000;fill-opacity:1" id="rect4874-5" width="4.286" height="90" x="412.143" y="452.719"/><rect style="fill:#000;fill-opacity:1" id="rect4891" width="216.429" height="5" x="170" y="423.791"/><rect style="fill:#000;fill-opacity:1" id="rect4891-3" width="75" height="5" x="168.929" y="321.719"/><ellipse style="fill:#fff;fill-opacity:1" id="path4836-6-7" cx="270.571" cy="322.362" rx="32.5" ry="33.214"/><ellipse style="fill:#fff;fill-opacity:1" id="path4836-6-7-5" cx="413.571" cy="428.791" rx="32.5" ry="33.214"/></g></g></svg>