<svg xmlns="http://www.w3.org/2000/svg" xmlns:svg="http://www.w3.org/2000/svg" id="svg2493" width="64" height="64" version="1.1"><defs id="defs2495"><linearGradient id="linearGradient3764"><stop style="stop-color:#ffffb7;stop-opacity:1" id="stop3766" offset="0"/><stop id="stop3772" offset=".5" style="stop-color:#f4e55b;stop-opacity:1"/><stop style="stop-color:#ea9a00;stop-opacity:1" id="stop3768" offset="1"/></linearGradient><clipPath id="clipPath3909" clipPathUnits="userSpaceOnUse"><rect style="fill:#000" id="rect3911" width="64" height="64" x=".116" y="-.03" clip-path="none"/></clipPath><clipPath id="clipPath3959" clipPathUnits="userSpaceOnUse"><rect style="fill:#000" id="rect3961" width="64" height="64" x=".09" y="-.09" clip-path="none"/></clipPath><clipPath id="clipPath3963" clipPathUnits="userSpaceOnUse"><rect style="fill:#000" id="rect3965" width="64" height="64" x=".09" y="-.09" clip-path="none"/></clipPath><clipPath id="clipPath3967" clipPathUnits="userSpaceOnUse"><rect style="fill:#000" id="rect3969" width="64" height="64" x=".09" y="-.09" clip-path="none"/></clipPath><clipPath id="clipPath3971" clipPathUnits="userSpaceOnUse"><rect style="fill:#000" id="rect3973" width="64" height="64" x=".09" y="-.09" clip-path="none"/></clipPath><clipPath id="clipPath3975" clipPathUnits="userSpaceOnUse"><rect style="fill:#000" id="rect3977" width="64" height="64" x=".09" y="-.09" clip-path="none"/></clipPath><clipPath id="clipPath3979" clipPathUnits="userSpaceOnUse"><rect style="fill:#000" id="rect3981" width="64" height="64" x=".09" y="-.09" clip-path="none"/></clipPath></defs><metadata id="metadata2498"/><g id="layer1"><rect style="fill:#000" id="rect2501-4-8" width="64" height="64" x="0" y="0" clip-path="none"/><path style="fill:#0064c5;fill-opacity:1;stroke:none" id="path3368" d="M 70.099166,46.753031 C 47.268987,60.928941 18.057406,60.718836 -4.5889875,46.134312 l -3.6018252,3.601825 C 16.50688,66.136272 48.807575,66.334155 73.700991,50.354856 l -3.601825,-3.601825 z" clip-path="url(#clipPath3979)"/><path style="fill:#0064c5;fill-opacity:1;fill-rule:evenodd;stroke:none" id="path3405" d="m 32.08929,-3.2866875 -2.708379,2.1855144 0.171674,68.8617281 2.4994,2.051225 2.442797,-1.949673 -0.121946,-69.2918703 -2.283546,-1.8569242 z" clip-path="url(#clipPath3975)" transform="translate(0,0.09011484)"/><path style="fill:#0064c5;fill-opacity:1;fill-rule:evenodd;stroke:none" id="path3405-4" d="m 21.533708,-6.3050504 -3.318232,1.0493423 -24.9133737,64.1972811 1.5809588,2.820478 2.9850093,-0.926392 25.1163076,-64.57979 -1.45067,-2.5609194 z" clip-path="url(#clipPath3971)"/><path style="fill:#0064c5;fill-opacity:1;fill-rule:evenodd;stroke:none" id="path3405-4-9" d="m 42.796685,-7.872101 -1.739564,3.0142507 24.959753,64.1792623 3.07041,1.013463 1.576737,-2.698589 L 45.59575,-6.9621649 42.796685,-7.872101 z" clip-path="url(#clipPath3967)"/><path style="fill:#0064c5;fill-opacity:1;stroke:none" id="path3368-5" d="M 71.547122,23.048264 C 48.716943,37.224174 19.505362,37.014069 -3.1410322,22.429545 l -3.601825,3.601825 C 17.954836,42.431505 50.255531,42.629388 75.148947,26.650089 l -3.601825,-3.601825 z" clip-path="url(#clipPath3963)"/><path style="fill:#0064c5;fill-opacity:1;stroke:none" id="path3368-5-0" d="M 70.490657,-0.32601789 C 47.660478,13.849892 18.448897,13.639787 -4.1974971,-0.94473689 L -7.7993221,2.6570881 C 16.898371,19.057223 49.199066,19.255106 74.092482,3.2758071 l -3.601825,-3.60182499 z" clip-path="url(#clipPath3959)"/></g></svg>